<svg xmlns="http://www.w3.org/2000/svg" width="342" height="286" viewBox="0 0 342 286" fill="none"><g opacity="0.5"><path opacity="0.5" fill-rule="evenodd" clip-rule="evenodd" d="M36.6779 202.554L-6.94922 158.927L36.6779 115.299L80.305 158.926L36.6779 202.554Z" fill="#001E53"></path><path opacity="0.36" fill-rule="evenodd" clip-rule="evenodd" d="M123.932 202.555L80.3047 158.928L123.932 115.301L167.559 158.928L123.932 202.555Z" fill="#001E53"></path><path opacity="0.5" fill-rule="evenodd" clip-rule="evenodd" d="M123.928 115.304L80.3008 71.6772L123.928 28.0501L167.555 71.6772L123.928 115.304Z" fill="#001E53"></path><path opacity="0.5" fill-rule="evenodd" clip-rule="evenodd" d="M37.0334 28.4077L-6.59375 -15.2195L37.0334 -58.8466L80.6606 -15.2194L37.0334 28.4077Z" fill="#001E53"></path><path fill-rule="evenodd" clip-rule="evenodd" d="M36.6758 115.302L-6.59375 72.0322L37.0334 28.4051L80.303 71.6747L36.6758 115.302Z" fill="#001E53"></path><path opacity="0.36" fill-rule="evenodd" clip-rule="evenodd" d="M123.93 28.0469L80.6602 -15.2227L124.287 -58.8499L167.557 -15.5803L123.93 28.0469Z" fill="#001E53"></path><g opacity="0.19"><path fill-rule="evenodd" clip-rule="evenodd" d="M-6.59947 245.829L-50.2266 202.202L-6.95699 158.932L36.6701 202.559L-6.59947 245.829Z" fill="#001E53"></path><path fill-rule="evenodd" clip-rule="evenodd" d="M80.303 246.181L36.6758 202.554L80.3029 158.927L123.93 202.554L80.303 246.181Z" fill="#001E53"></path><path fill-rule="evenodd" clip-rule="evenodd" d="M167.553 158.931L123.926 115.304L167.553 71.6771L211.18 115.304L167.553 158.931Z" fill="#001E53"></path><path fill-rule="evenodd" clip-rule="evenodd" d="M167.557 71.6732L123.93 28.0461L167.557 -15.5811L211.184 28.046L167.557 71.6732Z" fill="#001E53"></path><path fill-rule="evenodd" clip-rule="evenodd" d="M167.557 246.183L123.93 202.556L167.557 158.929L211.184 202.556L167.557 246.183Z" fill="#001E53"></path></g><path opacity="0.72" fill-rule="evenodd" clip-rule="evenodd" d="M-6.59155 158.569L-50.2188 114.942L-6.94918 71.6726L36.678 115.3L-6.59155 158.569Z" fill="#001E53"></path><path opacity="0.72" fill-rule="evenodd" clip-rule="evenodd" d="M80.3047 158.929L37.0352 115.659L80.6623 72.0323L123.932 115.302L80.3047 158.929Z" fill="#001E53"></path><path opacity="0.72" fill-rule="evenodd" clip-rule="evenodd" d="M80.2991 71.6772L36.6719 28.05L80.299 -15.5771L123.926 28.0501L80.2991 71.6772Z" fill="#001E53"></path><path opacity="0.72" fill-rule="evenodd" clip-rule="evenodd" d="M-6.59546 72.0315L-50.2227 28.4043L-6.59552 -15.2228L37.0317 28.4044L-6.59546 72.0315Z" fill="#001E53"></path></g></svg>